<svg version="1.1" id="Слой_1" xmlns="http://www.w3.org/2000/svg" xmlns:xlink="http://www.w3.org/1999/xlink" x="0px" y="0px" width="16.771px" height="16.771px" viewBox="0 0 16.771 16.771" enable-background="new 0 0 16.771 16.771" xml:space="preserve">
<g>
	<path fill="#010101" d="M8.386,0C3.755,0,0,3.754,0,8.386s3.755,8.386,8.386,8.386c4.63,0,8.386-3.754,8.386-8.386
		S13.018,0,8.386,0z M8.386,15.653c-4.009,0-7.269-3.26-7.269-7.268s3.26-7.268,7.269-7.268c4.007,0,7.268,3.26,7.268,7.268
		S12.393,15.653,8.386,15.653z"></path>
    <path fill="#010101" d="M11.65,3.372H8.633c0,0-1.331-0.14-2.273,0.909C5.224,5.542,5.937,7.109,6.721,7.618
		c0.567,0.367,1.562,0.297,1.562,0.297S8.139,8.32,8.211,8.656c0.074,0.341,0.361,0.616,0.361,0.616S7.234,9.339,6.197,9.843
		c-1.184,0.573-1.447,2.126-0.5,2.917c0.615,0.513,2.07,0.646,2.07,0.646s1.457,0.01,2.502-0.627
		c1.109-0.678,1.436-1.992,0.724-3.063c-0.366-0.55-1.34-0.955-1.467-1.415c-0.13-0.469,0.175-0.687,0.175-0.687
		s1.107-0.757,1.223-1.683c0.164-1.318-0.89-2.085-0.89-2.085h0.804L11.65,3.372z M9.644,10.077c0.44,0.326,0.812,0.805,0.812,1.286
		c0,0.898-0.814,1.446-2.005,1.446s-2.222-0.725-2.222-1.622s1.064-1.492,2.255-1.492c0.251,0,0.593-0.032,0.593-0.032
		S9.436,9.922,9.644,10.077z M8.799,7.475C8.095,7.657,7.315,6.995,7.056,5.995C6.795,4.996,7.154,4.037,7.858,3.854
		c0.703-0.183,1.482,0.479,1.743,1.479C9.861,6.333,9.502,7.292,8.799,7.475z"></path>
</g>
</svg>