<svg version="1.1" id="Слой_1" xmlns="http://www.w3.org/2000/svg" xmlns:xlink="http://www.w3.org/1999/xlink" x="0px" y="0px" width="21.894px" height="17.867px" viewBox="0 0 21.894 17.867" enable-background="new 0 0 21.894 17.867" xml:space="preserve">
<g>
	<path fill="#1E0C0C" d="M21.568,9.17l-1.066-1.057c-0.435-0.432-1.143-0.431-1.578,0l-5.921,6.042l-0.793,2.886l-0.193,0.192
		c-0.146,0.144-0.146,0.376-0.003,0.521l-0.001,0.007l0.007-0.002c0.072,0.071,0.167,0.107,0.262,0.107
		c0.096,0,0.191-0.036,0.264-0.109l0.194-0.192l2.908-0.787l5.921-6.042C22.003,10.305,22.003,9.602,21.568,9.17z M13.867,14.348
		l3.996-4.132l1.586,1.574l-3.996,4.133L13.867,14.348z M13.529,15.063l1.204,1.194l-1.655,0.448L13.529,15.063z M21.039,10.212
		l-1.062,1.053l-1.586-1.573l1.062-1.053c0.144-0.143,0.377-0.143,0.521,0l1.065,1.057C21.183,9.837,21.183,10.069,21.039,10.212z"></path>
    <path fill="#1E0C0C" d="M10.842,14.132H1.45c1.7-1.336,5.534-4.037,7.503-5.75l0.531,0.465c0.375,0.332,0.867,0.498,1.358,0.498
		s0.982-0.166,1.355-0.496l8.738-7.655v5.854c0,0.205,0.168,0.371,0.374,0.371c0.207,0,0.374-0.166,0.374-0.371V0.371
		c0-0.003-0.002-0.006-0.002-0.009c-0.001-0.041-0.007-0.083-0.022-0.123c-0.001-0.002-0.003-0.004-0.004-0.007
		c-0.004-0.01-0.011-0.018-0.016-0.027c-0.016-0.029-0.033-0.058-0.056-0.082c-0.01-0.01-0.021-0.019-0.03-0.028
		c-0.023-0.021-0.049-0.037-0.077-0.051c-0.012-0.006-0.023-0.013-0.036-0.018C21.4,0.011,21.357,0,21.311,0H0.374
		c-0.046,0-0.09,0.011-0.131,0.026C0.229,0.031,0.219,0.038,0.206,0.044C0.179,0.058,0.153,0.075,0.13,0.095
		C0.119,0.104,0.109,0.113,0.1,0.123C0.077,0.147,0.06,0.175,0.044,0.205c-0.005,0.01-0.012,0.018-0.016,0.027
		C0.027,0.235,0.025,0.237,0.024,0.239c-0.016,0.04-0.021,0.082-0.022,0.123C0.002,0.365,0,0.368,0,0.371v14.132
		c0,0.001,0.001,0.001,0.001,0.003c0,0.04,0.006,0.079,0.02,0.118c0.002,0.004,0.005,0.008,0.007,0.013
		c0.005,0.013,0.014,0.023,0.02,0.036c0.014,0.027,0.03,0.052,0.051,0.074c0.011,0.012,0.021,0.021,0.032,0.031
		c0.023,0.02,0.048,0.036,0.075,0.05c0.012,0.006,0.023,0.014,0.037,0.019c0.042,0.015,0.086,0.025,0.132,0.025h10.468
		c0.207,0,0.374-0.166,0.374-0.371S11.049,14.132,10.842,14.132z M0.914,13.738V1.193l7.475,6.693
		C6.312,9.688,2.442,12.539,0.914,13.738z M20.322,0.742l-8.62,7.552c-0.474,0.42-1.245,0.42-1.721-0.002l-0.74-0.648
		C9.239,7.642,9.239,7.639,9.236,7.637c-0.008-0.01-0.02-0.013-0.028-0.021L1.362,0.742H20.322z"></path>
</g>
</svg>