<svg version="1.1" id="Слой_1" xmlns="http://www.w3.org/2000/svg" xmlns:xlink="http://www.w3.org/1999/xlink" x="0px" y="0px" width="36.107px" height="45.229px" viewBox="0 0 36.107 45.229" enable-background="new 0 0 36.107 45.229" xml:space="preserve">
<g>
	<path fill="#fe6e00" d="M17.41,0.012C8.418,0.327,0.949,7.338,0.086,16.287c-0.178,1.79-0.074,3.523,0.24,5.184l0,0
		c0,0,0.027,0.195,0.121,0.565c0.279,1.243,0.695,2.448,1.215,3.58C3.473,29.9,7.656,37.068,17.047,44.867
		c0.576,0.483,1.42,0.483,2.004,0c9.391-7.789,13.576-14.958,15.395-19.261c0.529-1.131,0.938-2.328,1.217-3.579
		c0.082-0.362,0.119-0.566,0.119-0.566l0,0c0.215-1.112,0.326-2.253,0.326-3.421C36.107,7.857,27.672-0.35,17.41,0.012z
		 M18.049,27.016c-4.844,0-8.768-3.922-8.768-8.763s3.924-8.764,8.768-8.764s8.77,3.923,8.77,8.764S22.893,27.016,18.049,27.016z"></path>
</g>
</svg>