<svg version="1.1" id="Слой_1" xmlns="http://www.w3.org/2000/svg" xmlns:xlink="http://www.w3.org/1999/xlink" x="0px" y="0px" width="22.959px" height="15.938px" viewBox="0 0 22.959 15.938" enable-background="new 0 0 22.959 15.938" xml:space="preserve">
<polygon fill="none" points="5.782,15.328 5.782,27.375 6.865,27.375 6.865,26.394 11.844,26.394 11.844,27.375 12.824,27.375
	12.824,19.344 12.824,13.438 5.782,13.438 "></polygon>
    <g>
	<rect x="8.708" y="1.938" fill="#1E0C0C" width="1.979" height="1.979"></rect>
        <rect x="11.708" y="1.938" fill="#1E0C0C" width="1.979" height="1.979"></rect>
        <rect x="8.708" y="4.922" fill="#1E0C0C" width="1.979" height="1.979"></rect>
        <rect x="11.708" y="4.922" fill="#1E0C0C" width="1.979" height="1.979"></rect>
        <rect x="8.708" y="7.937" fill="#1E0C0C" width="1.979" height="1.979"></rect>
        <rect x="11.708" y="7.937" fill="#1E0C0C" width="1.979" height="1.979"></rect>
        <rect x="8.708" y="10.937" fill="#1E0C0C" width="1.979" height="1.979"></rect>
        <rect x="11.708" y="10.937" fill="#1E0C0C" width="1.979" height="1.979"></rect>
        <path fill="#1E0C0C" d="M20.75,12.391V6.906h-5.083V0H6.624v2.891H1.541V8.06C0.62,8.634,0,9.648,0,10.812
		c0,1.162,0.62,2.17,1.541,2.741c0.304,0.189,0.64,0.326,1,0.407C2.611,13.976,2.678,14,2.75,14.012v0.926v0.998h1v0.002h2.874h1
		h7.042h1h4.583c0.172,0,0.338-0.013,0.5-0.032c1.272-0.151,2.21-0.867,2.21-1.757S22.021,12.542,20.75,12.391z M2.541,12.937
		c-0.395-0.132-0.737-0.368-1-0.679C1.208,11.865,1,11.365,1,10.812s0.208-1.054,0.541-1.446c0.263-0.311,0.605-0.546,1-0.679
		C2.765,8.612,3,8.562,3.25,8.562c1.241,0,2.25,1.009,2.25,2.25s-1.01,2.25-2.25,2.25C3,13.062,2.765,13.012,2.541,12.937z
		 M6.624,14.938H3.75v-0.926v0c1.554-0.243,2.75-1.579,2.75-3.2c0-1.792-1.458-3.25-3.25-3.25c-0.244,0-0.48,0.032-0.709,0.083
		V3.891h4.083V14.938z M14.666,6.906v8.031h-0.979v-0.981H8.708v0.981H7.624V2.891V1h7.042V6.906z M15.666,14.938V7.906h4.083v4.485
		c-1.272,0.151-2.21,0.867-2.21,1.757c0,0.287,0.106,0.552,0.28,0.79H15.666z M20.75,14.895c-0.156,0.025-0.32,0.042-0.5,0.042
		c-0.18,0-0.344-0.018-0.5-0.042c-0.749-0.118-1.21-0.481-1.21-0.747S19,13.52,19.75,13.401c0.156-0.025,0.32-0.042,0.5-0.042
		c0.18,0,0.344,0.018,0.5,0.042c0.749,0.118,1.21,0.48,1.21,0.747S21.499,14.777,20.75,14.895z"></path>
</g>
</svg>