<svg version="1.1" id="Слой_1" xmlns="http://www.w3.org/2000/svg" xmlns:xlink="http://www.w3.org/1999/xlink" x="0px" y="0px" width="16.771px" height="16.771px" viewBox="0 0 16.771 16.771" enable-background="new 0 0 16.771 16.771" xml:space="preserve">
<g>
	<path fill="#010101" d="M8.386,0C3.755,0,0,3.754,0,8.386s3.755,8.386,8.386,8.386c4.63,0,8.386-3.754,8.386-8.386
		S13.016,0,8.386,0z M8.386,15.653c-4.007,0-7.268-3.26-7.268-7.268s3.261-7.268,7.268-7.268c4.007,0,7.268,3.26,7.268,7.268
		S12.393,15.653,8.386,15.653z"></path>
    <path fill="#010101" d="M10.9,9.998c0,0,0.505-0.291,0.186-1.049c-0.211-0.499-0.876-0.318-0.876-0.318S9.526,9.268,8.421,9.305
		C7.14,9.347,6.674,8.602,6.674,8.602S5.982,8.375,5.705,8.89C5.406,9.444,5.738,9.798,5.738,9.798s0.257,0.308,0.633,0.501
		c0.452,0.232,1.035,0.358,1.035,0.358l-1.62,1.633c0,0-0.334,0.447,0.06,1.007c0.288,0.408,0.881,0.185,0.881,0.185l1.561-1.643
		l1.61,1.645c0,0,0.429,0.41,0.999-0.227c0.42-0.469-0.011-1.024-0.011-1.024L9.373,10.72c0,0,0.575-0.18,1.014-0.386
		C10.686,10.192,10.9,9.998,10.9,9.998z"></path>
    <path fill="#010101" d="M8.386,3.156c-1.551,0-2.808,1.257-2.808,2.808c0,1.55,1.257,2.807,2.808,2.807
		c1.549,0,2.807-1.257,2.807-2.807S9.936,3.156,8.386,3.156z M8.388,7.255c-0.708,0-1.281-0.573-1.281-1.281
		c0-0.707,0.573-1.279,1.281-1.279s1.28,0.572,1.28,1.279C9.667,6.682,9.094,7.255,8.388,7.255z"></path>
</g>
</svg>