<svg version="1.1" id="Слой_1" xmlns="http://www.w3.org/2000/svg" xmlns:xlink="http://www.w3.org/1999/xlink" x="0px" y="0px" width="16.772px" height="16.771px" viewBox="0 0 16.772 16.771" enable-background="new 0 0 16.772 16.771" xml:space="preserve">
<g>
	<path fill="#010101" d="M7.896,3.896c0,0-1.006-0.791-2.445,0.361C3.972,5.441,4.592,6.542,4.592,6.542l4.005,5.136l3.712,1.461
		l-0.478-3.974L7.896,3.896z M11.024,9.213L9.748,9.319L7.395,6.321c0.372-0.268,0.746-0.475,1-0.604L11.024,9.213z M5.92,4.812
		c0.79-0.632,1.376-0.379,1.552-0.275C7.195,4.674,6.75,4.916,6.33,5.236C5.945,5.53,5.572,5.876,5.294,6.149
		C5.234,5.891,5.226,5.368,5.92,4.812z M6.725,6.303C6.413,6.564,6.131,6.834,5.919,7.049l-0.403-0.52
		c0.277-0.277,0.663-0.64,1.064-0.946c0.435-0.332,0.896-0.58,1.173-0.716l0.384,0.511C7.883,5.506,7.505,5.714,7.13,5.986
		 M8.898,10.887L6.182,7.386C6.396,7.17,6.679,6.899,6.988,6.639l2.306,2.938L8.898,10.887z M9.343,11.183l0.408-1.35l1.453-0.121
		l0.28,2.313L9.343,11.183z"></path>
    <path fill="#010101" d="M8.386,0C3.755,0,0,3.754,0,8.386s3.755,8.386,8.386,8.386c4.63,0,8.386-3.754,8.386-8.386
		S13.017,0,8.386,0z M8.386,15.653c-4.007,0-7.268-3.26-7.268-7.268s3.261-7.268,7.268-7.268s7.268,3.26,7.268,7.268
		S12.394,15.653,8.386,15.653z"></path>
</g>
</svg>