<svg version="1.1" id="Слой_1" xmlns="http://www.w3.org/2000/svg" xmlns:xlink="http://www.w3.org/1999/xlink" x="0px" y="0px" width="38.729px" height="50.025px" viewBox="0 0 38.729 50.025" enable-background="new 0 0 38.729 50.025" xml:space="preserve">
<g>
	<path fill-rule="evenodd" clip-rule="evenodd" fill="#fff" d="M38.09,49.2c-0.093,0.486-0.519,0.825-0.996,0.825
		c-0.063,0-0.127-0.006-0.191-0.018c-0.552-0.104-0.914-0.637-0.808-1.188c1.761-9.232,0.409-13.182-10.488-16.271l-5.268,11.121
		c-0.168,0.354-0.525,0.58-0.918,0.58c-0.005,0-0.011,0-0.016,0c-0.4-0.007-0.757-0.245-0.915-0.611l-4.84-11.161l-3.703,1.363
		c-7.9,2.953-9.207,5.745-6.984,14.932c0.131,0.544-0.204,1.094-0.75,1.226c-0.079,0.019-0.159,0.028-0.239,0.028
		c-0.457,0-0.873-0.312-0.986-0.777c-2.176-8.996-0.942-13.062,5.567-16.178c-1.921-2.906-2.091-7.438-2.091-13.927
		c0-9.449,0-18.374,15.305-19.112c4.728-0.231,8.222,0.82,10.723,3.205c4.548,4.333,4.548,12.183,4.548,18.489
		c0,1.609,0.197,3.037,0.386,4.417c0.386,2.801,0.724,5.452-1.152,7.937C38.639,37.167,39.534,41.631,38.09,49.2z M19.463,40.774
		l4.351-9.189c-0.033-0.034-0.064-0.07-0.096-0.104c-0.868-0.962-1.205-2.2-1.33-3.217c-0.723,0.258-1.48,0.414-2.273,0.414
		c-1.139,0-2.226-0.242-3.232-0.666c-0.155,1.267-0.66,2.462-1.476,3.409L19.463,40.774z M20.115,26.646
		c3.955,0,7.023-5.037,7.023-9.369c0-2.148-0.92-5.861-1.997-7.78c-2.417,1.809-6.991,1.967-8.504,1.967
		c-3.194,0-3.621,1.43-3.621,7.111C13.016,23.024,16.201,26.646,20.115,26.646z M33.414,26.42c-0.189-1.381-0.405-2.946-0.405-4.694
		c0-5.919,0-13.285-3.918-17.02c-2.078-1.979-5.1-2.839-9.222-2.646C7.117,2.677,6.495,8.646,6.495,19.144
		c0,6.183,0.14,10.742,1.938,13.112c0.269-0.107,0.524-0.216,0.808-0.322l4.409-1.623c0.063-0.059,0.13-0.117,0.186-0.18
		c1.07-1.212,1.104-2.656,1.059-3.281c-2.359-1.828-3.909-4.853-3.909-8.275c0-4.701,0-9.142,5.652-9.142
		c3.079,0,6.83-0.646,7.787-2.065c0.171-0.255,0.448-0.418,0.753-0.444c0.321-0.024,0.607,0.086,0.819,0.305
		c1.907,1.971,3.172,7.354,3.172,10.048c0,3.765-1.897,7.833-4.81,9.942c-0.001,1.003,0.213,2.174,0.869,2.902
		c0.096,0.108,0.213,0.203,0.33,0.299c2.823,0.769,5.126,1.611,6.982,2.599C34.052,31.153,33.79,29.158,33.414,26.42z M25.224,44.52
		h6.298c0.561,0,1.016,0.454,1.016,1.015s-0.455,1.015-1.016,1.015h-6.298c-0.561,0-1.016-0.454-1.016-1.015
		S24.664,44.52,25.224,44.52z"></path>
</g>
</svg>