<svg version="1.1" id="Слой_1" xmlns="http://www.w3.org/2000/svg" xmlns:xlink="http://www.w3.org/1999/xlink" x="0px" y="0px" width="19.996px" height="24.084px" viewBox="0 0 19.996 24.084" enable-background="new 0 0 19.996 24.084" xml:space="preserve">
<g>
	<path fill="#1E0C0C" d="M7.011,17.998c-0.544,0-0.986,0.468-0.986,1.043c0,0.577,0.441,1.044,0.986,1.044
		c0.545,0,0.987-0.467,0.987-1.044C7.998,18.465,7.557,17.998,7.011,17.998z"></path>
    <path fill="#1E0C0C" d="M19.995,24.036v-4.777c0.063-2.897-2.507-4.416-3.876-4.814c-0.042-0.012-0.988-0.316-2.093-0.406v-1.363
		c0-0.303-0.117-0.564-0.41-0.627c-0.071-0.015-0.143-0.016-0.212-0.006c0.948-1.092,1.452-2.506,1.617-3.459
		c0.002-0.012,0.001-0.023,0.002-0.035c0.013-0.038,0.023-0.078,0.029-0.119c0.045-0.326,0.574-1.986,0.369-2.704
		c-0.095-0.331-0.229-0.634-0.349-0.869l-0.113-3.503C14.937,0.607,14.004,0,13.266,0H6.88C6.142,0,5.084,0.607,5.062,1.353
		L4.958,4.615c-0.137,0.241-0.345,0.65-0.477,1.109C4.276,6.443,4.93,8.104,4.976,8.429C4.981,8.47,4.991,8.51,5.004,8.548
		c0.001,0.012,0,0.023,0.002,0.035c0.165,0.953,0.669,2.367,1.617,3.458c-0.069-0.009-0.14-0.007-0.211,0.008
		c-0.294,0.062-0.442,0.323-0.442,0.627v1.363c-1.104,0.089-2.02,0.394-2.063,0.406c-1.368,0.398-3.969,1.917-3.906,4.8v4.792H1.02
		l0-4.806c-0.057-2.629,3.118-3.862,3.237-3.898c0.01-0.003,1.077-0.304,2.297-0.326v-0.001c0.323-0.006,0.587,0.089,0.62-0.229
		c0.326,0.352,0.714,0.334,1.16,0.554v1.052c0,0.354,0.284,0.672,0.635,0.672c0.35,0,0.634-0.318,0.634-0.672v-1.487
		c0-0.285-0.186-0.191-0.457-0.271c-0.881-0.26-1.608-1.383-1.92-1.994c0.723,0.602,1.634,1.013,2.774,1.013
		c0.005,0,0.01-0.002,0.015-0.002s0.01,0.002,0.015,0.002c1.139,0,2.051-0.41,2.773-1.012c-0.313,0.612-1.04,1.733-1.92,1.993
		c-0.271,0.08-0.457-0.014-0.457,0.271v1.487c0,0.354,0.284,0.672,0.635,0.672c0.35,0,0.634-0.318,0.634-0.672v-1.052
		c0.446-0.22,0.833-0.203,1.16-0.554c0.032,0.318,0.297,0.224,0.62,0.229v0.001c1.22,0.022,2.287,0.323,2.293,0.325
		c0.123,0.037,3.298,1.27,3.24,3.913v4.792H19.995z M6.048,1.111C6.05,1.054,6.105,1,6.162,1h7.698c0.057,0,0.112,0.054,0.113,0.111
		l0.065,2.895H5.974L6.048,1.111z M6.138,6.08c0.147-0.516,0.445-0.911,0.448-0.915c0.023-0.036,0.042-0.073,0.058-0.11h0.123h3.742
		c-0.685,0.589-2.084,1.43-4.406,1.7C6.094,6.452,6.103,6.203,6.138,6.08z M10.028,12.049c-0.005,0-0.01,0.002-0.015,0.002
		s-0.01-0.002-0.015-0.002c-3,0-3.714-3.524-3.743-3.687C6.251,8.333,6.242,8.307,6.233,8.28c-0.001-0.01,0-0.02-0.001-0.03
		c-0.018-0.128-0.034-0.264-0.05-0.401c3.979-0.45,5.642-2.563,5.714-2.66c0.031-0.042,0.053-0.087,0.07-0.134h1.413h0.004
		c0.016,0.038,0.034,0.074,0.057,0.109c0.003,0.005,0.301,0.4,0.448,0.916c0.04,0.139,0.046,0.438,0.031,0.797
		c-0.628-0.215-1.129-0.442-1.513-0.657c-0.4,0.349-0.655,0.56-0.901,0.742c0.538,0.341,1.288,0.712,2.321,1.042
		c-0.01,0.083-0.021,0.167-0.031,0.246c-0.001,0.01,0,0.02-0.001,0.029c-0.008,0.027-0.018,0.054-0.023,0.083
		C13.764,8.402,13.043,12.049,10.028,12.049z"></path>
    <path fill="#1E0C0C" d="M13.011,17.998c-0.544,0-0.986,0.468-0.986,1.043c0,0.577,0.441,1.044,0.986,1.044
		c0.545,0,0.987-0.467,0.987-1.044C13.998,18.465,13.557,17.998,13.011,17.998z"></path>
    <path fill="#1E0C0C" d="M7.011,21.997c-0.544,0-0.986,0.468-0.986,1.044c0,0.577,0.441,1.043,0.986,1.043
		c0.545,0,0.987-0.466,0.987-1.043C7.998,22.465,7.557,21.997,7.011,21.997z"></path>
    <path fill="#1E0C0C" d="M13.011,21.997c-0.544,0-0.986,0.468-0.986,1.044c0,0.577,0.441,1.043,0.986,1.043
		c0.545,0,0.987-0.466,0.987-1.043C13.998,22.465,13.557,21.997,13.011,21.997z"></path>
</g>
</svg>