<svg version="1.1" id="Слой_1" xmlns="http://www.w3.org/2000/svg" xmlns:xlink="http://www.w3.org/1999/xlink" x="0px" y="0px" width="26.019px" height="21.05px" viewBox="0 0 26.019 21.05" enable-background="new 0 0 26.019 21.05" xml:space="preserve">
<g>
	<path fill="#1E0C0C" d="M19.172,18.013h3.857V17h-4.261C18.935,17.355,19.077,17.614,19.172,18.013z"></path>
    <path fill="#1E0C0C" d="M14.436,2.617c0.085,0.1,0.183,0.195,0.292,0.286c0.078,0.102,0.124,0.422,0.124,0.515
		c0,0.163-0.125,0.411-0.353,0.585c-0.25,0.191-0.296,0.549-0.105,0.798c0.112,0.146,0.282,0.223,0.453,0.223
		c0.121,0,0.243-0.038,0.346-0.117c0.515-0.395,0.799-0.964,0.799-1.489c0-0.352-0.13-0.914-0.37-1.221
		c-0.017-0.025-0.036-0.048-0.057-0.07c-0.085-0.1-0.184-0.195-0.292-0.286c-0.079-0.103-0.125-0.298-0.125-0.392
		c0-0.163,0.125-0.254,0.353-0.429c0.25-0.191,0.297-0.548,0.106-0.797c-0.191-0.249-0.549-0.297-0.799-0.105
		c-0.515,0.395-0.799,0.807-0.799,1.332c0,0.352,0.13,0.788,0.369,1.095C14.395,2.569,14.414,2.593,14.436,2.617z"></path>
    <path fill="#1E0C0C" d="M18.405,2.617c0.085,0.1,0.184,0.195,0.292,0.286c0.078,0.102,0.124,0.422,0.124,0.515
		c0,0.163-0.125,0.411-0.353,0.585c-0.25,0.191-0.297,0.549-0.105,0.798c0.112,0.146,0.281,0.223,0.453,0.223
		c0.121,0,0.243-0.038,0.346-0.117c0.515-0.395,0.799-0.964,0.799-1.489c0-0.352-0.13-0.913-0.369-1.22
		c-0.017-0.025-0.036-0.049-0.058-0.071c-0.085-0.1-0.184-0.195-0.292-0.286c-0.079-0.102-0.125-0.298-0.125-0.391
		c0-0.163,0.125-0.254,0.353-0.429c0.25-0.191,0.297-0.548,0.105-0.797c-0.191-0.249-0.548-0.297-0.799-0.105
		c-0.515,0.395-0.798,0.807-0.799,1.332c0,0.352,0.13,0.788,0.369,1.095C18.364,2.569,18.384,2.593,18.405,2.617z"></path>
    <path fill="#1E0C0C" d="M16.702,15.604c0.346-0.655,0.313-1.151,0.308-1.203c-0.044-0.787-0.714-1.515-0.77-1.572
		c-1.017-1.194-2.59-1.324-3.301-1.316c-0.048-0.376-0.135-0.605-0.143-0.625l-0.019-0.042c-0.779-1.591-2.961-1.741-3.553-1.752
		V9.093c-0.01,0-0.044,0-0.088,0c-0.031,0-0.052,0-0.061,0l0,0c-0.592,0.011-2.773,0.161-3.553,1.753l-0.019,0.042
		c-0.018,0.046-0.44,1.151,0.098,2.646l2.003,5.278c-0.115,0.137-0.232,0.217-0.351,0.233c-0.222,0.029-0.465-0.134-0.543-0.201
		L2.897,15.5c-0.485-0.569-0.473-1.006-0.471-1.035c0.017-0.293,0.331-0.717,0.5-0.898c0.407-0.478,0.974-0.71,1.482-0.821
		c-0.088-0.446-0.094-0.839-0.068-1.149c-0.736,0.131-1.617,0.453-2.261,1.21c-0.076,0.08-0.747,0.808-0.788,1.57
		c-0.007,0.071-0.041,0.572,0.306,1.228c-0.305,0.359-1.494,1.849-1.576,3.312c-0.089,0.648,0.063,1.873,1.261,2.082
		c0.075,0.015,0.283,0.052,0.604,0.052c0.774,0,2.204-0.213,3.973-1.438l0.093,0.082c0.06,0.055,0.567,0.493,1.245,0.493
		c0.063,0,0.127-0.004,0.192-0.012c0.19-0.024,0.429-0.094,0.675-0.259c0.193,0.286,0.535,0.57,1.06,0.587v0.005
		c0.009,0,0.016-0.002,0.024-0.002s0.016,0.002,0.024,0.002v-0.005c0.524-0.018,0.866-0.301,1.06-0.587
		c0.247,0.165,0.485,0.235,0.675,0.259c0.065,0.008,0.13,0.012,0.192,0.012c0.678,0,1.185-0.438,1.24-0.487l0.099-0.088
		c1.77,1.225,3.198,1.438,3.973,1.438c0.321,0,0.529-0.037,0.604-0.052c1.199-0.209,1.351-1.434,1.262-2.082
		C18.196,17.453,17.007,15.963,16.702,15.604z M1.525,19.886l-0.042-0.009c-0.433-0.072-0.336-0.792-0.333-0.82l0.006-0.061
		c0.041-0.885,0.742-1.948,1.17-2.49l2.646,2.327C2.918,20.166,1.534,19.888,1.525,19.886z M15.392,13.589
		c0.144,0.151,0.463,0.582,0.48,0.886c0.001,0.019,0.014,0.456-0.472,1.025l-2.255,1.978l-0.011-0.008l-0.033,0.046l-1.52,1.333
		c-0.002,0.003-0.277,0.227-0.533,0.196c-0.12-0.015-0.239-0.095-0.355-0.233l2.006-5.288c0.112-0.31,0.18-0.602,0.22-0.873
		C13.419,12.641,14.646,12.713,15.392,13.589z M9.149,19.365c-0.097-0.011-0.147-0.081-0.167-0.13L6.67,13.14
		c-0.355-0.988-0.15-1.701-0.112-1.819c0.461-0.89,1.914-1.087,2.547-1.09v0c0.02-0.001,0.044,0,0.067,0c0.006,0,0.014,0,0.02,0v0
		c0.633,0.005,2.085,0.2,2.547,1.089c0.042,0.13,0.241,0.84-0.107,1.811L9.32,19.221C9.297,19.283,9.246,19.354,9.149,19.365z
		 M15.973,16.511c0.429,0.543,1.127,1.604,1.168,2.486l0.006,0.061c0.001,0.008,0.109,0.746-0.333,0.82l-0.042,0.009
		c-0.015,0.003-1.39,0.282-3.447-1.052L15.973,16.511z"></path>
    <path fill="#1E0C0C" d="M23.507,7.623c-0.156,0-0.308,0.015-0.457,0.038V5.98H11.006v2.036c0.265,0.063,0.418,0.145,0.698,0.257
		c0.105,0.042,0.211,0.088,0.316,0.139V7.056h0.02V7.042h9.975v0.013h0.021v6.125c0,0.941-1.11,1.801-2.053,1.801H18.12
		c-0.023,0.162-0.063,0.254-0.127,0.458c0.125,0.168,0.262,0.365,0.401,0.585h1.59c1.57,0,3.066-1.276,3.066-2.845v-0.435
		c0.149,0.023,0.301,0.038,0.457,0.038c1.525,0,2.511-1.156,2.511-2.581C26.019,8.778,25.033,7.623,23.507,7.623z M23.507,11.646
		c-0.16,0-0.311-0.027-0.457-0.065V8.827c0.146-0.039,0.297-0.066,0.457-0.066c0.894,0,1.528,0.647,1.528,1.442
		C25.036,10.999,24.401,11.646,23.507,11.646z"></path>
</g>
</svg>