<svg version="1.1" id="Слой_1" xmlns="http://www.w3.org/2000/svg" xmlns:xlink="http://www.w3.org/1999/xlink" x="0px" y="0px" width="43.067px" height="39.229px" viewBox="0 0 43.067 39.229" enable-background="new 0 0 43.067 39.229" xml:space="preserve">
<g>
	<path fill="#fff" d="M39.603,39.229H8.227l0,0c-0.001,0-0.001,0-0.001,0H3.465C1.554,39.229,0,37.673,0,35.762V8.639
		c0-1.911,1.554-3.466,3.465-3.466h11.749V2.501c0-0.622,0.228-1.21,0.645-1.672c0.026-0.035,0.056-0.069,0.087-0.101
		C16.419,0.259,17.046,0,17.713,0h7.641c0.666,0,1.294,0.259,1.768,0.729c0.473,0.476,0.731,1.104,0.731,1.772v2.672h11.75
		c1.911,0,3.465,1.555,3.465,3.466v27.123C43.067,37.673,41.514,39.229,39.603,39.229z M35.715,37.479h3.888
		c0.946,0,1.717-0.77,1.717-1.717V8.639c0-0.946-0.771-1.716-1.717-1.716h-3.888v12.553l2.266,1.312
		c0.202,0.116,0.348,0.307,0.407,0.531c0.061,0.224,0.028,0.463-0.088,0.664l-2.641,4.559c0.037,0.096,0.056,0.2,0.056,0.308V37.479
		z M9.1,37.479h24.867v-8.013l-0.358,0.618c-0.242,0.417-0.776,0.562-1.194,0.318l-5.787-3.35c-0.201-0.116-0.347-0.308-0.406-0.532
		c-0.061-0.224-0.028-0.463,0.088-0.664L31,17.756c0.241-0.417,0.775-0.562,1.194-0.318l1.772,1.025V6.923H9.1V37.479z M3.465,6.923
		c-0.946,0-1.716,0.77-1.716,1.716v27.123c0,0.947,0.77,1.717,1.716,1.717h3.886V6.923H3.465z M28.261,25.977l4.271,2.474
		l3.815-6.588l-4.271-2.474L28.261,25.977z M16.962,5.173h9.143V2.501c0-0.203-0.078-0.393-0.22-0.534
		c-0.14-0.14-0.33-0.217-0.531-0.217h-7.641c-0.177,0-0.344,0.06-0.479,0.171c-0.016,0.018-0.032,0.035-0.049,0.052
		c-0.144,0.144-0.223,0.332-0.223,0.528V5.173z M17.375,26.329c-0.124,0-0.248-0.026-0.367-0.081l-5.89-2.721
		c-0.438-0.203-0.63-0.722-0.427-1.161l1.943-4.207c0.097-0.21,0.273-0.374,0.491-0.455c0.221-0.078,0.459-0.068,0.669,0.027
		l5.891,2.721c0.211,0.098,0.374,0.275,0.454,0.492c0.08,0.218,0.07,0.459-0.027,0.669l-1.944,4.207
		C18.021,26.141,17.704,26.329,17.375,26.329z M12.646,22.307l4.302,1.986l1.21-2.618l-4.302-1.988L12.646,22.307z"></path>
    <path fill="#fff" d="M25.455,19.386c-2.649,0-4.726-1.613-4.726-3.673c0-2.059,2.076-3.672,4.726-3.672
		c2.651,0,4.728,1.613,4.728,3.672C30.183,17.772,28.106,19.386,25.455,19.386z M25.455,13.791c-1.613,0-2.978,0.88-2.978,1.922
		c0,1.043,1.364,1.923,2.978,1.923c1.614,0,2.979-0.88,2.979-1.923C28.435,14.671,27.069,13.791,25.455,13.791z"></path>
</g>
</svg>