<svg version="1.1" id="Слой_1" xmlns="http://www.w3.org/2000/svg" xmlns:xlink="http://www.w3.org/1999/xlink" x="0px" y="0px" width="16.772px" height="16.771px" viewBox="0 0 16.772 16.771" enable-background="new 0 0 16.772 16.771" xml:space="preserve">
<g>
	<path fill="#010101" d="M8.386,0C3.755,0,0,3.754,0,8.386s3.755,8.386,8.386,8.386c4.63,0,8.386-3.754,8.386-8.386
		S13.018,0,8.386,0z M8.386,15.653c-4.007,0-7.268-3.26-7.268-7.268s3.26-7.268,7.268-7.268s7.267,3.26,7.267,7.268
		S12.393,15.653,8.386,15.653z"></path>
    <path fill="#010101" d="M10.313,8.547c0,0,0.857-0.142,0.857-1.066c0-1.032-0.857-1.088-0.857-1.088H7.46V4.915
		c0,0-0.12-0.771-0.92-0.771c-0.812,0-0.94,0.771-0.94,0.771v5.602c0,0,0.036,0.943,0.62,1.505c0.436,0.42,1.313,0.604,1.313,0.604
		h2.937c0,0,0.691-0.201,0.691-1.036c0-1.016-0.691-1.117-0.691-1.117H7.522V8.547H10.313L10.313,8.547z"></path>
</g>
</svg>