<svg version="1.1" id="Слой_1" xmlns="http://www.w3.org/2000/svg" xmlns:xlink="http://www.w3.org/1999/xlink" x="0px" y="0px" width="16.771px" height="16.771px" viewBox="0 0 16.771 16.771" enable-background="new 0 0 16.771 16.771" xml:space="preserve">
<path fill="#1E0C0C" d="M14.992,0v-0.032C14.83-0.013,14.664,0,14.492,0H14.992z"></path>
    <g>
	<path fill="#010101" d="M8.386,0C3.755,0,0,3.754,0,8.386s3.755,8.386,8.386,8.386c4.631,0,8.386-3.754,8.386-8.386
		S13.017,0,8.386,0z M8.386,15.653c-4.007,0-7.268-3.26-7.268-7.268s3.26-7.268,7.268-7.268s7.268,3.26,7.268,7.268
		S12.393,15.653,8.386,15.653z"></path>
        <path fill="#010101" d="M10.053,8.273c0,0,1.511-0.179,1.511-1.877c0-1.591-1.511-1.906-1.511-1.906H5.679v7.791h4.374
		c0,0,1.995-0.29,1.835-2.106C11.704,8.076,10.053,8.273,10.053,8.273z M7.607,5.939h1.599c0,0,0.645,0.134,0.645,0.815
		c0,0.727-0.645,0.803-0.645,0.803L7.607,7.559V5.939z M9.206,10.851l-1.599,0.002V9.009h1.599c0,0,0.92-0.132,0.92,0.815
		C10.125,10.869,9.206,10.851,9.206,10.851z"></path>
</g>
</svg>