<svg version="1.1" id="Слой_1" xmlns="http://www.w3.org/2000/svg" xmlns:xlink="http://www.w3.org/1999/xlink" x="0px" y="0px" width="18.984px" height="23.001px" viewBox="0 0 18.984 23.001" enable-background="new 0 0 18.984 23.001" xml:space="preserve">
<g>
	<path fill="#1E0C0C" d="M15.355,13.628l-1.864-0.641l-0.001,0.004c-0.118-0.035-0.248-0.036-0.375,0.007
		c-0.334,0.112-0.516,0.483-0.406,0.827l0.774,2.3l-2.126-1.128c-0.306-0.18-0.694-0.071-0.869,0.244
		c-0.175,0.314-0.069,0.59,0.236,0.77l0.838,0.494l-2.102,4.407l-1.914-4.406l0.838-0.495c0.305-0.18,0.411-0.456,0.236-0.77
		c-0.175-0.314-0.564-0.423-0.869-0.244l-2.126,1.128l0.774-2.3c0.11-0.344-0.072-0.715-0.406-0.827
		c-0.126-0.043-0.256-0.042-0.375-0.007l-0.001-0.004l-1.864,0.641C3.389,13.729,0,14.617,0,17.783v5.218h0.993v-5.218
		c0-2.249,2.984-2.984,3.097-3.015l0.707-0.242l-0.897,2.813c-0.002,0.005-0.002,0.01-0.003,0.016
		c-0.007,0.022-0.011,0.045-0.015,0.068c-0.003,0.02-0.008,0.039-0.01,0.059c-0.002,0.021-0.001,0.043-0.001,0.064
		c0,0.021-0.001,0.042,0.001,0.063c0.002,0.021,0.006,0.04,0.01,0.061c0.004,0.022,0.008,0.043,0.014,0.064
		c0.005,0.018,0.013,0.036,0.02,0.054c0.009,0.022,0.018,0.044,0.029,0.065c0.002,0.005,0.004,0.01,0.006,0.015
		c0.004,0.007,0.011,0.013,0.015,0.02c0.022,0.036,0.046,0.069,0.074,0.1C4.05,18,4.059,18.011,4.069,18.02
		c0.036,0.035,0.075,0.067,0.12,0.093c0.002,0.001,0.004,0.002,0.006,0.003c0.035,0.02,0.071,0.037,0.11,0.05
		c0.005,0.001,0.011,0.001,0.016,0.002c0.059,0.018,0.119,0.03,0.181,0.03c0,0,0.001,0,0.002,0l0,0l0,0
		c0.06,0,0.12-0.011,0.179-0.029c0.021-0.006,0.039-0.016,0.058-0.024c0.026-0.012,0.054-0.02,0.079-0.034l1.62-0.955l2.436,5.48
		C8.988,22.868,9.212,23,9.446,23c0.005,0,0.01-0.001,0.015-0.002c0.005,0,0.01,0.002,0.015,0.002c0.233,0,0.458-0.133,0.57-0.362
		l2.624-5.481l1.62,0.955c0.025,0.014,0.052,0.022,0.079,0.034c0.019,0.008,0.038,0.018,0.058,0.024
		c0.059,0.018,0.119,0.029,0.179,0.029l0,0h0l0.001,0c0.062,0,0.123-0.012,0.182-0.03c0.005-0.001,0.011-0.001,0.016-0.002
		c0.039-0.014,0.075-0.03,0.109-0.05c0.002-0.001,0.005-0.002,0.007-0.003c0.044-0.026,0.083-0.058,0.12-0.093
		c0.01-0.009,0.019-0.021,0.028-0.031c0.028-0.031,0.052-0.064,0.074-0.099c0.004-0.007,0.011-0.013,0.015-0.021
		c0.003-0.005,0.004-0.01,0.007-0.015c0.011-0.021,0.02-0.043,0.028-0.065c0.007-0.019,0.015-0.036,0.021-0.054
		c0.006-0.021,0.01-0.042,0.014-0.064c0.004-0.02,0.009-0.04,0.011-0.061s0.001-0.042,0.001-0.063c0-0.021,0.001-0.043-0.001-0.064
		c-0.002-0.02-0.006-0.039-0.01-0.059c-0.004-0.023-0.008-0.045-0.015-0.068c-0.001-0.006-0.001-0.011-0.003-0.016l-0.897-2.812
		l0.658,0.227l0.047,0.014c0.028,0.008,2.973,0.752,2.973,3.015v5.176h0.992v-5.176C18.984,14.617,15.72,13.729,15.355,13.628z"></path>
    <path fill="#1E0C0C" d="M2.773,6.981c0.04,0.19,0.074,0.369,0.109,0.549c0.159,0.816,0.104,1.191,0.671,3.063
		c0.085,0.28,0.336,0.46,0.608,0.46c0.063,0,0.126-0.01,0.189-0.03c0.336-0.107,0.523-0.475,0.418-0.821
		c-0.547-1.805-0.572-2.11-0.732-2.93C4.002,7.097,3.969,6.921,3.931,6.735C3.746,5.229,3.886,3.858,4.656,2.97
		c1.48-1.708,4.439-1.995,4.88-2.001c0.491,0.007,3.429,0.314,4.892,2.001c0.77,0.888,0.879,2.258,0.695,3.765
		c-0.038,0.186-0.072,0.361-0.106,0.537c-0.16,0.819-0.31,1.094-0.857,2.898c-0.105,0.346,0.083,0.713,0.418,0.821
		c0.063,0.02,0.127,0.031,0.189,0.031c0.271,0,0.523-0.181,0.608-0.461c0.567-1.871,0.637-2.215,0.796-3.031
		c0.035-0.18,0.07-0.358,0.109-0.549c0.004-0.017,0.006-0.035,0.009-0.052c0.241-1.917-0.067-3.492-1.103-4.682
		c-1.752-2.014-4.75-2.228-5.555-2.246C9.628,0.002,9.626,0,9.623,0C9.612,0,9.581,0,9.539,0C9.484,0,9.442,0,9.43,0
		C9.426,0,9.422,0.002,9.417,0.002c-0.813,0.021-3.8,0.234-5.55,2.246C2.832,3.438,2.523,5.013,2.765,6.93
		C2.767,6.947,2.77,6.964,2.773,6.981z"></path>
    <path fill="#1E0C0C" d="M10.844,2.956c-0.296-0.049-0.578,0.159-0.625,0.466c-0.02,0.125-0.534,3.077-4.819,2.736
		C5.096,6.136,4.836,6.367,4.813,6.676C4.791,6.977,5.003,7.238,5.291,7.275c0.017,2.749,1.825,5.711,4.243,5.711
		c2.419,0,4.228-2.966,4.243-5.716c0.241-0.048,0.427-0.262,0.439-0.526c0.014-0.31-0.219-0.572-0.521-0.586
		c-1.385-0.065-2.337-1.279-2.658-1.753c0.199-0.46,0.257-0.792,0.259-0.804C11.344,3.294,11.142,3.006,10.844,2.956z M12.66,7.047
		c-0.018,0.06-0.03,0.122-0.03,0.189c0,2.288-1.597,4.752-3.096,4.752c-1.459,0-3.132-2.468-3.156-4.696
		c2.015-0.125,3.375-0.993,4.049-1.856C10.85,5.968,11.686,6.682,12.66,7.047z"></path>
</g>
</svg>