<svg version="1.1" id="Слой_1" xmlns="http://www.w3.org/2000/svg" xmlns:xlink="http://www.w3.org/1999/xlink" x="0px" y="0px" width="15.01px" height="26.036px" viewBox="0 0 15.01 26.036" enable-background="new 0 0 15.01 26.036" xml:space="preserve">
<g>
	<path fill="#1E0C0C" d="M11.542,9.984c-0.315,0-0.54-0.021-0.54,0.297v10.58c0,0.318,0.225,0.14,0.54,0.14
		c0.314,0,0.445,0.178,0.445-0.14v-10.58C11.987,9.963,11.856,9.984,11.542,9.984z"></path>
    <path fill="#1E0C0C" d="M3.375,10.016c-0.315,0-0.384-0.053-0.384,0.266v10.58c0,0.318,0.131,0.14,0.446,0.14
		s0.571,0.178,0.571-0.14v-10.58C4.008,9.963,3.69,10.016,3.375,10.016z"></path>
    <path fill="#1E0C0C" d="M7.469,11.043c-0.834,0-1.51,0.454-1.51,1.013s0.676,1.013,1.51,1.013s1.51-0.454,1.51-1.013
		S8.303,11.043,7.469,11.043z"></path>
    <path fill="#1E0C0C" d="M5.013,1.437c0.363-0.114,1.183-0.431,2.382-0.436c1.204,0.005,2.242,0.322,2.602,0.436v1.585h0.986V1.047
		c0-0.206-0.107-0.394-0.28-0.499c-0.093-0.055-1.108-0.53-3.251-0.547V0c-0.02,0-0.037,0-0.056,0c-0.02,0-0.037,0-0.057,0v0.001
		C5.198,0.018,4.369,0.493,4.277,0.548C4.103,0.653,3.996,0.841,3.996,1.047v1.975h1.017V1.437z"></path>
    <path fill="#1E0C0C" d="M11.997,7.003h-1.029V3.998H9.981v3.005H4.998V3.998H3.98v3.005H2.793C1.219,7.003,0,8.299,0,9.894v11.613
		c0,1.551,1.464,2.442,2.981,2.509v1.441c0,0.319,0.162,0.578,0.478,0.578c0.316,0,0.509-0.259,0.509-0.578v-1.435h7.011v1.435
		c0,0.319,0.193,0.578,0.51,0.578c0.314,0,0.508-0.259,0.508-0.578v-1.441c1.518-0.067,3.014-0.958,3.014-2.509V9.894
		C15.01,8.299,13.573,7.003,11.997,7.003z M13.993,21.507c0,0.957-1.051,1.516-1.996,1.516H2.793c-0.944,0-1.807-0.56-1.807-1.516
		V9.894c0-0.957,0.863-1.859,1.807-1.859h9.203c0.945,0,1.996,0.903,1.996,1.859V21.507z"></path>
</g>
</svg>