<svg version="1.1" id="Слой_1" xmlns="http://www.w3.org/2000/svg" xmlns:xlink="http://www.w3.org/1999/xlink" x="0px" y="0px" width="42.164px" height="30.433px" viewBox="0 0 42.164 30.433" enable-background="new 0 0 42.164 30.433" xml:space="preserve">
<path fill="#fff" d="M38.593,2.123C36.667,0.231,34.57-0.004,33.485,0C28.432,0.092,23.2,0.078,15.958,0.056
	C12.149,0.044,7.773,0.031,2.556,0.031C1.17,0.031,0,1.244,0,2.678v19.515c0,1.385,1.17,2.555,2.556,2.555h3.356
	c-0.139,0.424-0.233,0.869-0.233,1.339c0,2.396,1.949,4.346,4.345,4.346c2.396,0,4.345-1.95,4.345-4.346
	c0-0.47-0.094-0.915-0.233-1.339h13.894c-0.139,0.424-0.233,0.869-0.233,1.339c0,2.396,1.949,4.346,4.345,4.346
	s4.345-1.95,4.345-4.346c0-0.47-0.094-0.915-0.233-1.339h3.357c1.386,0,2.555-1.169,2.555-2.555v-8.486
	C42.164,8.347,40.964,4.45,38.593,2.123z M33.517,1.712c0.797-0.024,2.394,0.177,3.877,1.634c1.818,1.785,2.848,4.918,3.022,9.085
	c-1.953,0.003-6.591,0.006-12.061,0.009c0.001-0.021,0.012-0.038,0.012-0.059c0.007-0.791,0.012-9.132,0.012-10.25
	c0-0.129-0.033-0.248-0.083-0.357C30.098,1.762,31.821,1.744,33.517,1.712z M26.746,1.78c-0.048,0.108-0.079,0.225-0.079,0.351
	c0,1.118-0.004,9.446-0.012,10.235c0,0.026,0.012,0.049,0.014,0.075c-3.796,0.001-7.876,0.003-11.667,0.004
	c0.002-0.023,0.014-0.042,0.014-0.066c0.005-0.791,0.011-9.13,0.011-10.249c0-0.132-0.036-0.254-0.089-0.366
	c0.341,0.001,0.683,0.002,1.016,0.003C20.098,1.78,23.573,1.791,26.746,1.78z M2.556,1.744c4.092,0,7.661,0.008,10.852,0.017
	c-0.055,0.113-0.092,0.235-0.092,0.37c0,1.118-0.006,9.448-0.011,10.238c0,0.027,0.013,0.051,0.015,0.077
	c-5.127,0.002-9.505,0.003-11.608,0.003V2.678C1.712,2.197,2.122,1.744,2.556,1.744z M10.023,28.72
	c-1.451,0-2.632-1.182-2.632-2.633s1.181-2.632,2.632-2.632c1.452,0,2.633,1.181,2.633,2.632S11.476,28.72,10.023,28.72z
	 M32.141,28.72c-1.452,0-2.633-1.182-2.633-2.633s1.181-2.632,2.633-2.632s2.633,1.181,2.633,2.632S33.593,28.72,32.141,28.72z
	 M39.609,23.034h-3.71c-0.197,0-0.371,0.078-0.516,0.19c-0.796-0.902-1.948-1.483-3.243-1.483c-1.296,0-2.448,0.582-3.245,1.485
	c-0.145-0.114-0.32-0.192-0.518-0.192H13.783c-0.197,0-0.371,0.078-0.516,0.19c-0.796-0.902-1.948-1.483-3.244-1.483
	s-2.448,0.582-3.245,1.485c-0.145-0.113-0.32-0.192-0.518-0.192H2.556c-0.45,0-0.844-0.393-0.844-0.842v-8.03
	c6.322-0.001,33.311-0.009,38.74-0.019v8.049C40.452,22.642,40.059,23.034,39.609,23.034z"></path>
</svg>