<svg version="1.1" id="Слой_1" xmlns="http://www.w3.org/2000/svg" xmlns:xlink="http://www.w3.org/1999/xlink" x="0px" y="0px" width="28.259px" height="14.05px" viewBox="0 0 28.259 14.05" enable-background="new 0 0 28.259 14.05" xml:space="preserve">
<g>
	<path fill="#1E0C0C" d="M26.992,0.007H11.027c-0.434,0-0.682-0.067-1.098,0.22C9.816,0.313,9.874,0.4,9.808,0.476
		c-0.22,0.251-0.195,0.665,0.056,0.886l7.781,6.527c0.002,0.001,0.002,0.001,0.004,0.002c0.051,0.043,0.107,0.075,0.166,0.099
		C17.83,7.996,17.844,8,17.858,8.006c0.06,0.019,0.121,0.032,0.185,0.033l0,0c0,0,0,0,0.001,0l0,0c0.001,0,0.001,0,0.001,0
		c0.055,0,0.108-0.01,0.16-0.025C18.22,8.01,18.232,8.005,18.246,8c0.053-0.019,0.104-0.042,0.148-0.075
		c0.002-0.001,0.002-0.001,0.004-0.001V7.923c0.002,0,0.002-0.001,0.004-0.002L27,1.722l-1.045,10.604
		c-0.047,0.344-0.42,0.668-0.766,0.668L8.458,12.996c-0.334,0-0.479,0.208-0.479,0.543c0,0.334,0.146,0.511,0.479,0.511
		l16.731-0.002c0.95,0,1.647-0.615,1.777-1.556l1.269-10.866C28.365,0.684,27.943,0.007,26.992,0.007z M18.08,6.661L11,1.03h15.043
		L18.08,6.661z"></path>
    <path fill="#1E0C0C" d="M14.326,10.535c0-0.334-0.271-0.48-0.605-0.48H5.422c-0.334,0-0.605,0.146-0.605,0.48
		c0,0.333,0.271,0.511,0.605,0.511h8.299C14.056,11.046,14.326,10.869,14.326,10.535z"></path>
    <path fill="#1E0C0C" d="M12.5,7.583c0-0.334-0.271-0.543-0.605-0.543H1.158c-0.334,0-0.605,0.209-0.605,0.543S0.824,8,1.158,8
		h10.736C12.229,8,12.5,7.917,12.5,7.583z"></path>
    <path fill="#1E0C0C" d="M4.354,5.018h4.678c0.334,0,0.605-0.052,0.605-0.386c0-0.334-0.271-0.605-0.605-0.605H4.354
		c-0.334,0-0.604,0.271-0.604,0.605C3.749,4.966,4.02,5.018,4.354,5.018z"></path>
    <path fill-rule="evenodd" clip-rule="evenodd" fill="#1E0C0C" d="M3,4.041h3v1H3V4.041z"></path>
    <path fill-rule="evenodd" clip-rule="evenodd" fill="#1E0C0C" d="M7,4.041h3v1H7V4.041z"></path>
    <path fill-rule="evenodd" clip-rule="evenodd" fill="#1E0C0C" d="M0,7.041h3v1H0V7.041z"></path>
    <path fill-rule="evenodd" clip-rule="evenodd" fill="#1E0C0C" d="M10,7.041h3v1h-3V7.041z"></path>
    <path fill-rule="evenodd" clip-rule="evenodd" fill="#1E0C0C" d="M4,10.041h2v1H4V10.041z"></path>
    <path fill-rule="evenodd" clip-rule="evenodd" fill="#1E0C0C" d="M12,10.041h3v1h-3V10.041z"></path>
</g>
</svg>