<svg version="1.1" id="Слой_1" xmlns="http://www.w3.org/2000/svg" xmlns:xlink="http://www.w3.org/1999/xlink" x="0px" y="0px" width="16.771px" height="16.771px" viewBox="0 0 16.771 16.771" enable-background="new 0 0 16.771 16.771" xml:space="preserve">
<g>
	<path fill="#010101" d="M8.386,0C3.755,0,0,3.754,0,8.386s3.755,8.386,8.386,8.386s8.386-3.754,8.386-8.386S13.017,0,8.386,0z
		 M8.386,15.653c-4.007,0-7.268-3.26-7.268-7.268s3.26-7.268,7.268-7.268s7.268,3.26,7.268,7.268S12.393,15.653,8.386,15.653z"></path>
    <path fill="#010101" d="M8.88,5.868c0-0.76,0.559-0.777,0.705-0.777c0.399,0,0.958,0.004,0.958,0.004v-1.74H8.922
		c0,0-0.68,0.121-1.236,0.677C7.188,4.53,7.17,5.14,7.17,5.14v1.569h-1.13v1.75h1.144v4.957h1.71V8.412h1.638l0.2-1.648H8.88
		C8.88,6.765,8.88,6.286,8.88,5.868z"></path>
</g>
</svg>