<svg version="1.1" id="Слой_1" xmlns="http://www.w3.org/2000/svg" xmlns:xlink="http://www.w3.org/1999/xlink" x="0px" y="0px" width="20.75px" height="21.995px" viewBox="0 0 20.75 21.995" enable-background="new 0 0 20.75 21.995" xml:space="preserve">
<g>
	<path fill-rule="evenodd" clip-rule="evenodd" fill="#1E0C0C" d="M19.42,8.68l-0.01,12.316h0.918c0.233,0,0.421,0.251,0.421,0.484
		c0,0.232-0.188,0.515-0.421,0.515H0.421C0.189,21.995,0,21.712,0,21.48c0-0.233,0.189-0.484,0.421-0.484h0.981L1.393,8.698
		c0-0.828,0.731-1.736,1.478-1.736h1.385c0.048,0,0.095,0.008,0.139,0.023V6.431c0.101-0.755,0.507-1.45,1.187-1.45h9.589
		c0.664,0,1.146,0.704,1.245,1.387c0.002,0.02,0.004,0.041,0.004,0.06v0.557c0.044-0.015,0.091-0.024,0.14-0.024h1.353
		C18.658,6.962,19.42,7.871,19.42,8.68z M4.395,7.781c-0.044,0.015-0.091,0.18-0.139,0.18H2.87c-0.276,0-0.447,0.38-0.447,0.719
		L2.402,20.996h1.992V7.781z M15.42,6.463c-0.049-0.26-0.259-0.452-0.499-0.452h-9.09c-0.254,0-0.373,0.201-0.411,0.478
		L5.393,20.996H15.42V6.463z M16.419,7.968v13.027h1.992l0.011-12.334c0-0.32-0.233-0.669-0.51-0.669h-1.353
		C16.51,7.992,16.463,7.983,16.419,7.968z M6.408,8h0.285c0.033-0.009,0.056-0.039,0.093-0.039h7.148
		c0.036,0,0.059,0.03,0.093,0.039h0.381v1h-0.406h-1.594h-6V8.593c-0.026-0.072-0.043-0.145-0.043-0.21
		c0-0.041,0.032-0.067,0.043-0.104V8z M6.408,10h0.271c0.038-0.011,0.065-0.044,0.107-0.044h7.148c0.042,0,0.068,0.033,0.106,0.044
		h0.367v1h-0.406h-1.594h-6v-0.407c-0.026-0.076-0.043-0.152-0.043-0.216c0-0.041,0.032-0.067,0.043-0.104V10z M6.408,12h2v0.012h4
		V12h2v1h-2v-0.02h-4V13h-2v-0.363c-0.026-0.069-0.043-0.139-0.043-0.203c0-0.042,0.032-0.068,0.043-0.105V12z M6.408,14h0.316
		c0.023-0.004,0.038-0.026,0.062-0.026h7.148c0.024,0,0.039,0.022,0.062,0.026h0.412v1h-0.461c-0.004,0-0.008,0.005-0.012,0.005
		H6.786C6.781,15.005,6.777,15,6.773,15H6.408v-0.388c-0.026-0.076-0.043-0.151-0.043-0.216c0-0.04,0.032-0.067,0.043-0.104V14z
		 M6.408,16h0.375c0.001,0,0.002-0.001,0.003-0.001h7.148c0.001,0,0.001,0.001,0.002,0.001h0.471v1h-2v-0.033h-4V17h-2v-0.349
		c-0.011-0.037-0.043-0.064-0.043-0.104c0-0.065,0.017-0.135,0.043-0.204V16z M6.408,18h0.279c0.033-0.016,0.064-0.038,0.099-0.038
		h7.148c0.035,0,0.066,0.022,0.099,0.038h0.375v1h-2v-0.007h-4V19h-2v-0.324c-0.011-0.037-0.043-0.063-0.043-0.104
		c0-0.065,0.017-0.14,0.043-0.216V18z"></path>
    <path fill-rule="evenodd" clip-rule="evenodd" fill="#1E0C0C" d="M1.408,0h1v1h-1V0z"></path>
    <path fill-rule="evenodd" clip-rule="evenodd" fill="#1E0C0C" d="M2.408,1h1v1h-1V1z"></path>
    <path fill-rule="evenodd" clip-rule="evenodd" fill="#1E0C0C" d="M3.408,0h1v1h-1V0z"></path>
    <path fill-rule="evenodd" clip-rule="evenodd" fill="#1E0C0C" d="M3.408,2h1v1h-1V2z"></path>
    <path fill-rule="evenodd" clip-rule="evenodd" fill="#1E0C0C" d="M1.408,2h1v1h-1V2z"></path>
    <path fill-rule="evenodd" clip-rule="evenodd" fill="#1E0C0C" d="M6.408,0h1v1h-1V0z"></path>
    <path fill-rule="evenodd" clip-rule="evenodd" fill="#1E0C0C" d="M7.408,1h1v1h-1V1z"></path>
    <path fill-rule="evenodd" clip-rule="evenodd" fill="#1E0C0C" d="M8.408,0h1v1h-1V0z"></path>
    <path fill-rule="evenodd" clip-rule="evenodd" fill="#1E0C0C" d="M8.408,2h1v1h-1V2z"></path>
    <path fill-rule="evenodd" clip-rule="evenodd" fill="#1E0C0C" d="M6.408,2h1v1h-1V2z"></path>
    <path fill-rule="evenodd" clip-rule="evenodd" fill="#1E0C0C" d="M11.408,0h1v1h-1V0z"></path>
    <path fill-rule="evenodd" clip-rule="evenodd" fill="#1E0C0C" d="M12.408,1h1v1h-1V1z"></path>
    <path fill-rule="evenodd" clip-rule="evenodd" fill="#1E0C0C" d="M13.408,0h1v1h-1V0z"></path>
    <path fill-rule="evenodd" clip-rule="evenodd" fill="#1E0C0C" d="M13.408,2h1v1h-1V2z"></path>
    <path fill-rule="evenodd" clip-rule="evenodd" fill="#1E0C0C" d="M11.408,2h1v1h-1V2z"></path>
    <path fill-rule="evenodd" clip-rule="evenodd" fill="#1E0C0C" d="M16.408,0h1v1h-1V0z"></path>
    <path fill-rule="evenodd" clip-rule="evenodd" fill="#1E0C0C" d="M17.408,1h1v1h-1V1z"></path>
    <path fill-rule="evenodd" clip-rule="evenodd" fill="#1E0C0C" d="M18.408,0h1v1h-1V0z"></path>
    <path fill-rule="evenodd" clip-rule="evenodd" fill="#1E0C0C" d="M18.408,2h1v1h-1V2z"></path>
    <path fill-rule="evenodd" clip-rule="evenodd" fill="#1E0C0C" d="M16.408,2h1v1h-1V2z"></path>
</g>
</svg>