<svg version="1.1" id="Слой_1" xmlns="http://www.w3.org/2000/svg" xmlns:xlink="http://www.w3.org/1999/xlink" x="0px" y="0px" width="41.932px" height="42.173px" viewBox="0 0 41.932 42.173" enable-background="new 0 0 41.932 42.173" xml:space="preserve">
<g>
	<path fill="#fff" d="M5.646,7.203c-0.24,0-0.478-0.103-0.646-0.297L3.897,5.622L2.699,6.927C2.405,7.249,1.91,7.295,1.561,7.032
		c-0.35-0.264-0.443-0.75-0.216-1.124l0.88-1.446L0.615,3.728C0.217,3.546,0.021,3.092,0.163,2.677
		c0.143-0.413,0.575-0.653,1.002-0.552l1.646,0.389l0.202-1.759C3.063,0.32,3.432,0.044,3.873,0
		c0.438,0.007,0.799,0.345,0.835,0.782L4.846,2.47l1.735-0.352c0.423-0.086,0.854,0.165,0.983,0.584
		C7.692,3.122,7.482,3.57,7.078,3.739L5.517,4.391l0.87,1.542c0.217,0.381,0.107,0.864-0.251,1.116
		C5.986,7.152,5.815,7.203,5.646,7.203z"></path>
    <path fill="#fff" d="M14.199,7.203c-0.24,0-0.479-0.103-0.646-0.297l-1.103-1.284l-1.198,1.305
		c-0.296,0.322-0.791,0.368-1.139,0.105c-0.35-0.264-0.443-0.75-0.216-1.124l0.88-1.445L9.167,3.728
		C8.769,3.546,8.573,3.092,8.716,2.677c0.141-0.413,0.573-0.653,1.001-0.552l1.649,0.39l0.199-1.76C11.615,0.324,11.98,0,12.412,0
		c0.005,0,0.01,0,0.014,0c0.438,0.007,0.8,0.345,0.836,0.782l0.137,1.688l1.737-0.352c0.421-0.086,0.854,0.165,0.983,0.585
		c0.128,0.418-0.083,0.867-0.486,1.036l-1.563,0.651l0.871,1.542c0.216,0.382,0.106,0.864-0.253,1.116
		C14.54,7.152,14.369,7.203,14.199,7.203z"></path>
    <path fill="#fff" d="M22.752,7.203c-0.24,0-0.478-0.103-0.646-0.297l-1.103-1.284l-1.197,1.305
		c-0.296,0.322-0.79,0.367-1.139,0.105c-0.351-0.264-0.444-0.75-0.217-1.124l0.882-1.446l-1.611-0.734
		c-0.398-0.182-0.594-0.636-0.452-1.051c0.143-0.413,0.575-0.653,1.002-0.552l1.647,0.39l0.202-1.76
		C20.171,0.32,20.566-0.01,20.98,0c0.438,0.007,0.8,0.345,0.835,0.783l0.138,1.687l1.736-0.352c0.42-0.086,0.854,0.165,0.982,0.585
		C24.8,3.122,24.59,3.57,24.186,3.739l-1.563,0.651l0.871,1.542c0.216,0.382,0.105,0.864-0.253,1.116
		C23.093,7.152,22.922,7.203,22.752,7.203z"></path>
    <path fill="#fff" d="M31.307,7.203c-0.24,0-0.479-0.102-0.646-0.297l-1.104-1.284L28.36,6.927
		c-0.296,0.323-0.79,0.369-1.139,0.105c-0.35-0.264-0.443-0.749-0.216-1.124l0.88-1.445l-1.611-0.735
		c-0.398-0.182-0.593-0.636-0.451-1.051c0.142-0.413,0.573-0.653,1.001-0.552l1.648,0.39l0.202-1.76
		C28.725,0.32,29.079-0.01,29.534,0c0.438,0.007,0.799,0.345,0.835,0.783l0.138,1.687l1.735-0.352
		c0.42-0.086,0.854,0.165,0.982,0.585c0.129,0.418-0.082,0.867-0.485,1.036l-1.562,0.651l0.87,1.542
		c0.215,0.381,0.106,0.864-0.251,1.116C31.647,7.152,31.477,7.203,31.307,7.203z"></path>
    <path fill="#fff" d="M39.86,7.203c-0.24,0-0.479-0.103-0.646-0.297l-1.104-1.284l-1.197,1.305
		c-0.296,0.322-0.79,0.368-1.139,0.105c-0.351-0.264-0.443-0.75-0.217-1.124l0.881-1.445l-1.611-0.735
		c-0.398-0.182-0.594-0.636-0.451-1.051c0.142-0.413,0.574-0.653,1.001-0.552l1.647,0.39l0.202-1.76C37.276,0.324,37.642,0,38.073,0
		c0.005,0,0.009,0,0.014,0c0.438,0.007,0.8,0.345,0.835,0.782L39.06,2.47l1.736-0.352c0.425-0.086,0.853,0.165,0.982,0.584
		c0.128,0.419-0.082,0.867-0.486,1.036L39.73,4.391l0.871,1.542c0.216,0.381,0.106,0.864-0.252,1.116
		C40.201,7.152,40.029,7.203,39.86,7.203z"></path>
    <path fill="#fff" d="M32.518,42.173c-0.471,0-0.852-0.382-0.852-0.852V11.544c-0.1-0.523-0.524-0.912-1.01-0.912H11.278
		c-0.513,0-0.942,0.405-1.02,0.964l0.008,29.725c0,0.47-0.381,0.852-0.852,0.852c-0.47,0-0.851-0.382-0.851-0.852V11.48
		c0.203-1.527,1.341-2.551,2.714-2.551h19.378c1.342,0,2.504,1.043,2.704,2.425c0.006,0.04,0.008,0.081,0.008,0.121v29.846
		C33.368,41.792,32.987,42.173,32.518,42.173z"></path>
    <path fill="#fff" d="M3.469,42.142c-0.453,0-0.829-0.357-0.85-0.815L1.552,16.692c0-1.673,1.226-3.004,2.732-3.004h3.999
		c0.471,0,0.852,0.382,0.852,0.852s-0.381,0.852-0.852,0.852H4.284c-0.558,0-1.03,0.579-1.03,1.263l1.067,24.598
		c0.02,0.47-0.345,0.867-0.814,0.888C3.494,42.141,3.481,42.142,3.469,42.142z"></path>
    <path fill="#fff" d="M38.464,42.142c-0.013,0-0.025-0.001-0.038-0.001c-0.47-0.021-0.834-0.418-0.814-0.888l1.067-24.634
		c0-0.648-0.473-1.227-1.03-1.227h-3.997c-0.47,0-0.852-0.382-0.852-0.852s0.382-0.852,0.852-0.852h3.997
		c1.507,0,2.732,1.331,2.732,2.967l-1.067,24.671C39.293,41.784,38.916,42.142,38.464,42.142z"></path>
    <path fill="#fff" d="M28.979,15.392H12.954c-0.47,0-0.852-0.382-0.852-0.852s0.382-0.852,0.852-0.852h16.024
		c0.47,0,0.852,0.382,0.852,0.852S29.448,15.392,28.979,15.392z"></path>
    <path fill="#fff" d="M28.979,19.801H12.954c-0.47,0-0.852-0.382-0.852-0.852c0-0.47,0.382-0.852,0.852-0.852h16.024
		c0.47,0,0.852,0.381,0.852,0.852C29.83,19.419,29.448,19.801,28.979,19.801z"></path>
    <path fill="#fff" d="M28.979,24.209H12.954c-0.47,0-0.852-0.382-0.852-0.852s0.382-0.852,0.852-0.852h16.024
		c0.47,0,0.852,0.382,0.852,0.852S29.448,24.209,28.979,24.209z"></path>
    <path fill="#fff" d="M28.979,28.616H12.954c-0.47,0-0.852-0.382-0.852-0.852c0-0.47,0.382-0.852,0.852-0.852h16.024
		c0.47,0,0.852,0.381,0.852,0.852C29.83,28.234,29.448,28.616,28.979,28.616z"></path>
    <path fill="#fff" d="M28.979,33.024H12.954c-0.47,0-0.852-0.382-0.852-0.852c0-0.47,0.382-0.852,0.852-0.852h16.024
		c0.47,0,0.852,0.382,0.852,0.852C29.83,32.642,29.448,33.024,28.979,33.024z"></path>
    <path fill="#fff" d="M28.979,37.433H12.954c-0.47,0-0.852-0.382-0.852-0.852c0-0.47,0.382-0.852,0.852-0.852h16.024
		c0.47,0,0.852,0.381,0.852,0.852C29.83,37.051,29.448,37.433,28.979,37.433z"></path>
    <path fill="#fff" d="M41.081,42.173H0.852C0.382,42.173,0,41.792,0,41.322c0-0.47,0.382-0.852,0.852-0.852h40.229
		c0.47,0,0.851,0.382,0.851,0.852C41.932,41.792,41.551,42.173,41.081,42.173z"></path>
</g>
</svg>