<svg version="1.1" id="Слой_1" xmlns="http://www.w3.org/2000/svg" xmlns:xlink="http://www.w3.org/1999/xlink" x="0px" y="0px" width="37.611px" height="44.285px" viewBox="0 0 37.611 44.285" enable-background="new 0 0 37.611 44.285" xml:space="preserve">
<g>
	<path fill="#fff" d="M35.017,44.285H2.595C1.164,44.285,0,43.121,0,41.69V2.595C0,1.164,1.164,0,2.595,0h32.422
		c1.431,0,2.595,1.164,2.595,2.595V41.69C37.611,43.121,36.447,44.285,35.017,44.285z M2.595,1.799
		c-0.439,0-0.796,0.356-0.796,0.796V41.69c0,0.432,0.364,0.796,0.796,0.796h32.422c0.432,0,0.796-0.364,0.796-0.796V2.595
		c0-0.432-0.364-0.796-0.796-0.796H2.595z"></path>
    <path fill-rule="evenodd" clip-rule="evenodd" fill="#fff" d="M18.806,33.925c-6.298,0-11.421-5.124-11.421-11.421
		c0-6.298,5.123-11.422,11.421-11.422c6.297,0,11.422,5.124,11.422,11.422C30.228,28.801,25.103,33.925,18.806,33.925z
		 M28.382,23.403h-4.758c-0.059,1.297-0.236,2.563-0.542,3.758c1.173,0.36,2.24,0.854,3.11,1.483
		C27.4,27.192,28.197,25.388,28.382,23.403z M15.94,23.403c0.057,1.15,0.213,2.271,0.482,3.323c0.771-0.122,1.563-0.202,2.378-0.202
		c0.871,0,1.715,0.096,2.536,0.235c0.273-1.062,0.432-2.194,0.489-3.356H15.94z M21.825,21.604c-0.061-1.163-0.223-2.293-0.5-3.354
		c-0.818,0.138-1.657,0.233-2.524,0.233c-0.812,0-1.601-0.079-2.369-0.201c-0.272,1.052-0.43,2.172-0.49,3.322H21.825z
		 M22.542,28.879c-0.402,1.075-0.915,2.059-1.511,2.944c1.438-0.338,2.759-0.979,3.865-1.889
		C24.229,29.491,23.42,29.147,22.542,28.879z M18.89,31.685c0.762-0.898,1.394-1.985,1.877-3.208
		c-0.637-0.093-1.291-0.154-1.966-0.154c-0.62,0-1.225,0.045-1.813,0.124C17.474,29.687,18.119,30.779,18.89,31.685z M16.777,31.884
		c-0.623-0.914-1.159-1.935-1.574-3.054c-0.935,0.271-1.789,0.635-2.493,1.1C13.87,30.884,15.261,31.554,16.777,31.884z
		 M11.415,28.64c0.908-0.655,2.023-1.173,3.258-1.535c-0.299-1.179-0.473-2.424-0.531-3.701H9.229
		C9.414,25.386,10.21,27.189,11.415,28.64z M9.229,21.604h4.914c0.062-1.276,0.236-2.521,0.537-3.698
		c-1.237-0.362-2.355-0.881-3.266-1.539C10.209,17.818,9.414,19.622,9.229,21.604z M12.71,15.077
		c0.708,0.468,1.568,0.834,2.509,1.105c0.421-1.126,0.962-2.153,1.594-3.069C15.282,13.441,13.879,14.116,12.71,15.077z
		 M18.801,16.684c0.669,0,1.318-0.059,1.95-0.15c-0.482-1.209-1.109-2.283-1.863-3.172c-0.762,0.897-1.4,1.978-1.884,3.201
		C17.587,16.64,18.187,16.684,18.801,16.684z M20.995,13.173c0.604,0.888,1.123,1.878,1.531,2.961
		c0.885-0.269,1.699-0.615,2.37-1.06C23.78,14.156,22.447,13.508,20.995,13.173z M26.192,16.363
		c-0.872,0.63-1.942,1.126-3.119,1.486c0.31,1.193,0.487,2.458,0.55,3.754h4.759C28.197,19.62,27.4,17.814,26.192,16.363z"></path>
</g>
</svg>