<svg version="1.1" id="Слой_1" xmlns="http://www.w3.org/2000/svg" xmlns:xlink="http://www.w3.org/1999/xlink" x="0px" y="0px" width="19.874px" height="19.882px" viewBox="0 0 19.874 19.882" enable-background="new 0 0 19.874 19.882" xml:space="preserve">
<g>
	<path fill="none" stroke="#1E0C0C" stroke-miterlimit="10" d="M19.365,15.401c0.04,0.307-0.054,0.574-0.28,0.801l-2.656,2.64
		c-0.121,0.134-0.277,0.247-0.471,0.34c-0.192,0.093-0.383,0.153-0.568,0.18c-0.014,0-0.054,0.003-0.121,0.01
		c-0.066,0.006-0.152,0.01-0.26,0.01c-0.252,0-0.662-0.043-1.229-0.13c-0.565-0.086-1.258-0.3-2.077-0.64
		c-0.819-0.34-1.749-0.85-2.788-1.53c-1.039-0.68-2.145-1.613-3.316-2.8c-0.932-0.92-1.705-1.8-2.317-2.64s-1.105-1.617-1.479-2.33
		c-0.373-0.713-0.653-1.36-0.839-1.94s-0.313-1.08-0.379-1.5c-0.067-0.42-0.093-0.75-0.08-0.99s0.02-0.373,0.02-0.4
		C0.55,4.293,0.61,4.104,0.703,3.91c0.093-0.193,0.207-0.35,0.34-0.47L3.7,0.78C3.887,0.593,4.1,0.5,4.339,0.5
		c0.173,0,0.327,0.05,0.46,0.15c0.133,0.1,0.246,0.224,0.34,0.37l2.138,4.061c0.12,0.213,0.153,0.446,0.1,0.7
		C7.323,6.034,7.209,6.247,7.038,6.42l-0.979,0.98c-0.026,0.026-0.05,0.069-0.07,0.13c-0.021,0.06-0.03,0.11-0.03,0.15
		c0.054,0.28,0.174,0.6,0.359,0.96c0.16,0.32,0.407,0.71,0.74,1.17s0.806,0.99,1.418,1.59c0.6,0.613,1.133,1.09,1.599,1.43
		c0.466,0.34,0.856,0.59,1.169,0.75c0.313,0.16,0.553,0.257,0.719,0.29l0.25,0.05c0.027,0,0.07-0.01,0.131-0.03
		c0.059-0.02,0.103-0.043,0.129-0.07l1.139-1.16c0.24-0.213,0.52-0.32,0.84-0.32c0.227,0,0.406,0.04,0.539,0.12h0.02l3.856,2.28
		C19.145,14.915,19.311,15.134,19.365,15.401z"></path>
</g>
</svg>