<svg version="1.1" id="Слой_1" xmlns="http://www.w3.org/2000/svg" xmlns:xlink="http://www.w3.org/1999/xlink" x="0px" y="0px" width="44.461px" height="44.448px" viewBox="0 0 44.461 44.448" enable-background="new 0 0 44.461 44.448" xml:space="preserve">
<g>
	<path fill="#fff" d="M19.431,12.357c-0.064,0-0.129-0.007-0.193-0.021l-8.135-1.791c-0.488-0.107-0.795-0.589-0.688-1.075
		c0.105-0.488,0.584-0.798,1.074-0.688l7.654,1.685l3.734-3.734c0.352-0.353,0.924-0.353,1.277,0c0.352,0.353,0.352,0.925,0,1.277
		l-4.086,4.084C19.897,12.264,19.669,12.357,19.431,12.357z"></path>
    <path fill="#fff" d="M32.993,25.921c-0.414,0-0.787-0.287-0.881-0.709l-1.699-7.722c-0.066-0.301,0.025-0.615,0.242-0.833
		l11.01-11.008c0.279-0.281,0.508-0.597,0.678-0.937c0.158-0.32,0.258-0.648,0.297-0.974c0.035-0.307,0.014-0.593-0.064-0.851
		c-0.074-0.246-0.199-0.459-0.371-0.63c-0.17-0.17-0.381-0.294-0.627-0.369c-0.26-0.078-0.547-0.102-0.852-0.064
		c-0.328,0.038-0.654,0.137-0.975,0.296c-0.342,0.17-0.656,0.397-0.938,0.679l-11,11c-0.219,0.218-0.531,0.311-0.834,0.243
		l-7.742-1.705c-0.486-0.107-0.795-0.588-0.688-1.076c0.105-0.486,0.586-0.796,1.076-0.687l7.26,1.598l10.65-10.65
		c0.422-0.42,0.896-0.763,1.412-1.019c0.506-0.252,1.035-0.411,1.57-0.473c0.549-0.065,1.084-0.021,1.58,0.13
		c0.533,0.16,0.998,0.437,1.383,0.82c0.385,0.385,0.66,0.851,0.822,1.385c0.148,0.496,0.193,1.028,0.129,1.581
		c-0.063,0.533-0.221,1.06-0.473,1.569c-0.256,0.516-0.6,0.99-1.018,1.41l-10.66,10.66l1.594,7.238
		c0.107,0.487-0.201,0.969-0.688,1.076C33.124,25.914,33.058,25.921,32.993,25.921z"></path>
    <path fill="#fff" d="M34.786,34.057c-0.416,0-0.789-0.287-0.881-0.709l-1.793-8.136c-0.066-0.301,0.025-0.615,0.244-0.833
		l3.773-3.773c0.354-0.353,0.924-0.353,1.277,0s0.352,0.925,0,1.277l-3.424,3.424l1.684,7.653c0.107,0.487-0.199,0.969-0.688,1.076
		C34.915,34.05,34.851,34.057,34.786,34.057z"></path>
    <path fill="#fff" d="M33.284,44.448c-0.092,0-0.186-0.009-0.279-0.026c-1.188-0.227-1.93-1.747-2.85-3.872
		c-0.131-0.304-0.252-0.584-0.361-0.814l-0.387-0.823c-1.975-4.197-3.848-8.179-5.928-12.214c-2.303,1.914-4.346,3.985-6.492,6.164
		c-0.479,0.485-0.959,0.973-1.443,1.46l0.357,3.534c0.113,1.094-0.195,2.12-0.822,2.747L14.384,41.3
		c-0.602,0.6-1.271,1.137-2.074,0.973c-0.818-0.164-1.24-0.962-1.518-1.638l-2.027-4.938l-4.939-2.027
		c-0.676-0.278-1.473-0.702-1.637-1.52c-0.16-0.805,0.373-1.472,0.973-2.072l0.697-0.697c0.568-0.568,1.473-0.704,2.275-0.786
		c0.084-0.009,0.152-0.014,0.199-0.022c0.08-0.014,0.189-0.022,0.271-0.014l3.531,0.359c1.406-1.419,2.734-2.862,4.023-4.26
		c1.127-1.224,2.285-2.481,3.506-3.734C13.655,18.862,9.698,17,5.528,15.037L4.72,14.656c-0.232-0.108-0.512-0.229-0.816-0.36
		c-2.127-0.92-3.65-1.663-3.877-2.851c-0.096-0.507,0.072-1.009,0.477-1.412l1.773-1.772C3.04,7.498,4.735,7.295,5.868,7.543
		l5.139,1.131l3.434-3.434c0.354-0.353,0.924-0.353,1.277,0c0.352,0.353,0.352,0.925,0,1.277l-3.783,3.783
		c-0.219,0.218-0.531,0.31-0.832,0.243L5.479,9.307c-0.74-0.163-1.732,0.052-1.928,0.232l-1.66,1.658
		c0.459,0.459,2.023,1.136,2.729,1.441c0.324,0.14,0.621,0.269,0.867,0.384l0.811,0.381c4.563,2.147,8.871,4.176,13.287,6.482
		c0.254,0.134,0.432,0.38,0.475,0.664s-0.051,0.572-0.254,0.775c-1.516,1.515-2.941,3.062-4.318,4.557
		c-1.393,1.511-2.832,3.074-4.375,4.617c-0.193,0.191-0.459,0.286-0.73,0.26l-3.846-0.391c-0.064,0.008-0.137,0.016-0.219,0.024
		c-0.664,0.067-1.061,0.158-1.184,0.268l-0.695,0.695c-0.197,0.196-0.313,0.333-0.383,0.424C4.147,31.836,4.292,31.91,4.511,32
		l5.287,2.171c0.225,0.092,0.4,0.269,0.492,0.492l2.172,5.287c0.09,0.22,0.164,0.363,0.219,0.455
		c0.092-0.069,0.229-0.186,0.426-0.382l0.695-0.697c0.236-0.235,0.357-0.753,0.305-1.286l-0.402-3.96
		c-0.029-0.27,0.066-0.538,0.258-0.73c0.588-0.586,1.164-1.172,1.738-1.755c2.449-2.484,4.762-4.832,7.512-7.003
		c0.211-0.167,0.486-0.231,0.748-0.174s0.486,0.227,0.611,0.465c2.303,4.406,4.326,8.707,6.471,13.261l0.387,0.823
		c0.115,0.246,0.244,0.543,0.385,0.867c0.305,0.704,0.979,2.264,1.438,2.723l1.662-1.658c0.32-0.321,0.414-1.096,0.229-1.928
		l-1.236-5.622c-0.066-0.301,0.025-0.615,0.242-0.833l4.639-4.638c0.352-0.353,0.924-0.353,1.277,0c0.352,0.353,0.352,0.925,0,1.277
		l-4.289,4.288l1.131,5.14c0.326,1.476,0.059,2.818-0.715,3.593l-1.775,1.771C34.087,44.275,33.692,44.448,33.284,44.448z"></path>
</g>
</svg>