<svg version="1.1" id="Слой_1" xmlns="http://www.w3.org/2000/svg" xmlns:xlink="http://www.w3.org/1999/xlink" x="0px" y="0px" width="21.03px" height="21.03px" viewBox="0 0 21.03 21.03" enable-background="new 0 0 21.03 21.03" xml:space="preserve">
<g>
	<path fill="#fff" d="M20.516,18.03l-4.568-4.568c-0.025-0.024-0.053-0.041-0.078-0.064c0.898-1.363,1.424-2.995,1.424-4.751
		C17.293,3.871,13.422,0,8.646,0C3.871,0,0,3.871,0,8.646s3.871,8.646,8.646,8.646c1.755,0,3.387-0.524,4.751-1.424
		c0.022,0.025,0.04,0.054,0.063,0.078l4.569,4.568c0.687,0.687,1.799,0.687,2.485,0C21.201,19.83,21.201,18.717,20.516,18.03z
		 M8.646,14.295c-3.12,0-5.649-2.528-5.649-5.648s2.529-5.649,5.649-5.649s5.649,2.529,5.649,5.649S11.766,14.295,8.646,14.295z"></path>
</g>
</svg>