<svg version="1.1" id="Слой_1" xmlns="http://www.w3.org/2000/svg" xmlns:xlink="http://www.w3.org/1999/xlink" x="0px" y="0px" width="16.771px" height="16.771px" viewBox="0 0 16.771 16.771" enable-background="new 0 0 16.771 16.771" xml:space="preserve">
<g>
	<path fill="#010101" d="M8.387,0C3.756,0,0,3.754,0,8.386s3.756,8.386,8.387,8.386s8.385-3.754,8.385-8.386S13.018,0,8.387,0z
		 M8.387,15.653c-4.008,0-7.268-3.26-7.268-7.268s3.26-7.268,7.268-7.268c4.007,0,7.268,3.26,7.268,7.268
		S12.394,15.653,8.387,15.653z"></path>
    <polygon fill="#010101" points="9.727,6.98 8.348,4.189 7.037,7.012 3.902,7.435 6.235,9.53 5.679,12.583 8.432,11.054
		11.219,12.518 10.588,9.479 12.869,7.331 	"></polygon>
</g>
</svg>