<svg version="1.1" id="Слой_1" xmlns="http://www.w3.org/2000/svg" xmlns:xlink="http://www.w3.org/1999/xlink" x="0px" y="0px" width="22.749px" height="13.068px" viewBox="0 0 22.749 13.068" enable-background="new 0 0 22.749 13.068" xml:space="preserve">
<g>
	<path fill="#1E0C0C" d="M22.683,7.669C22.398,5.654,17.968,4,16.709,3.569l-2.615-2.914c-0.075-0.086-0.172-0.149-0.281-0.184
		C10.185-0.66,5.747,0.595,5.59,0.641C1.159,1.677,0.315,4.632,0.292,4.762c-0.006,0.035-0.01,0.071-0.01,0.107L0.278,6.962
		c-0.46,1.058-0.28,1.99,0.043,2.771c0.389,0.941,2.287,1.243,2.578,1.356c-0.041-0.219-0.065-0.351-0.065-0.582
		c0-0.251,0.025-0.496,0.073-0.732C2.761,9.654,1.553,9.488,1.459,9.262c-0.2-0.483-0.586-1.125-0.225-1.911
		c0.037-0.08,0.056-0.167,0.057-0.257l0.003-2.156c0.086-0.344,1.208-2.405,4.606-3.2C5.921,1.732,6.868,1.376,8.31,1.204v2.813
		H3.804c-0.34,0-0.553,0.151-0.553,0.491c0,0.34,0.213,0.553,0.553,0.553h13.429c0.013,0,0.025-0.002,0.037-0.003
		c2.113,0.835,4.105,2.024,4.194,2.79c0.003,0.023,0.012,0.05,0.013,0.073c0.073,1.981-0.817,1.341-1.545,1.967l-0.108,0.084
		c0.001,0.004,0.009,0.021,0.01,0.025c0.054,0.25,0.021,0.227,0.021,0.492c0,0.011-0.001,0.022-0.001,0.033
		c-0.002,0.19-0.021,0.376-0.051,0.56c0.37-0.152,1.836-0.342,2.156-0.661c0.044-0.045,0.083-0.094,0.13-0.146
		C22.96,9.25,22.737,7.925,22.683,7.669z M9.292,4.017V1.098c1.17-0.058,2.808,0.067,3.991,0.406l2.049,2.512H9.292z"></path>
    <path fill="#1E0C0C" d="M17.405,8.005c-1.248,0-2.188,0.826-2.374,2.022H7.773c-0.187-1.196-1.22-2.022-2.467-2.022
		c-1.378,0-2.5,1.122-2.5,2.502c0,1.378,1.122,2.561,2.5,2.561c1.519,0,2.002-1.035,2.35-1.997h7.4
		c0.066,0.712,0.643,1.997,2.35,1.997c1.379,0,2.5-1.183,2.5-2.561C19.906,9.127,18.784,8.005,17.405,8.005z M5.306,11.837
		c-0.699,0-1.269-0.631-1.269-1.33c0-0.701,0.569-1.271,1.269-1.271s1.269,0.57,1.269,1.271C6.574,11.206,6.005,11.837,5.306,11.837
		z M17.405,11.775c-0.7,0-1.269-0.569-1.269-1.268c0-0.701,0.569-1.271,1.269-1.271c0.699,0,1.269,0.57,1.269,1.271
		C18.674,11.206,18.104,11.775,17.405,11.775z"></path>
</g>
</svg>