<svg version="1.1" id="Слой_1" xmlns="http://www.w3.org/2000/svg" xmlns:xlink="http://www.w3.org/1999/xlink" x="0px" y="0px" width="18.061px" height="26px" viewBox="0 0 18.061 26" enable-background="new 0 0 18.061 26" xml:space="preserve">
<g>
	<path fill="#1E0C0C" d="M12.555,20.011h-2.504v-2.022H8.027v2.022H5.368c-1.388,0-2.36,1.222-2.36,2.609v0.473
		c0.189-0.071,0.393-0.115,0.605-0.115c0.25,0,0.173,0.055,0.387,0.15v-0.79c0-0.667,0.7-1.336,1.368-1.336h2.659v2.114
		c0.209-0.089,0.72-0.139,0.961-0.139c0.221,0,0.867,0.045,1.063,0.122v-2.097h2.754c0.668,0,1.211,0.543,1.211,1.211v0.915
		c0.215-0.095,0.17-0.15,0.418-0.15c0.215,0,0.416,0.044,0.605,0.115v-0.473C15.039,21.233,13.941,20.011,12.555,20.011z"></path>
    <path fill="#1E0C0C" d="M18.014,9.911c0.152-0.831-0.096-1.141-0.341-1.412c-0.501-0.554-1.221-0.536-1.414-0.521h-1.215V3.042
		C15.044,1.244,13.893,0,12.095,0H5.826C4.027,0,3.002,1.244,3.002,3.042v4.936H1.646C1.452,7.963,0.889,7.945,0.388,8.499
		C0.143,8.771-0.105,9.081,0.047,9.911c0,0-0.002,0-0.002,0.001l0.014,0.07c0.002,0.007,0.002,0.013,0.004,0.02
		c0,0.001,0.001,0.002,0.002,0.005l0.974,4.659v1.207c0,0.771,0.314,1.148,1.085,1.148h13.83c0.771,0,1.086-0.377,1.086-1.148V14.59
		l0.957-4.583c0.001-0.002,0.002-0.003,0.002-0.005C18,9.995,18,9.989,18.002,9.982l0.015-0.07
		C18.016,9.912,18.014,9.911,18.014,9.911z M16.244,9.001l0.002-0.004c0.034,0.002,0.07,0.004,0.105,0
		c0.115-0.009,0.475,0.019,0.542,0.096c0.051,0.058,0.206,0.227,0.144,0.526l-0.508,2.404c-0.184-0.09-0.951-0.051-1.17-0.051
		h-0.315V9.001H16.244z M5.826,1.023h6.269c1.079,0,1.957,0.94,1.957,2.019v8.93H4.025v-8.93C4.025,1.963,4.746,1.023,5.826,1.023z
		 M1.168,9.094c0.066-0.077,0.27-0.105,0.385-0.096c0.036,0.003,0.071,0.002,0.106,0L1.66,9.001h1.342v2.971l-0.879,0.031
		c-0.225,0-0.34-0.066-0.528,0.028L1.148,9.62C1.086,9.321,1.116,9.151,1.168,9.094z M15.953,15.966H2.123
		c-0.049,0-0.093-0.043-0.093-0.093V13.12c0-0.05,0.044-0.093,0.093-0.093h13.83c0.05,0,0.094,0.043,0.094,0.093v1.354
		c-0.01,0.067-0.01,0.134,0,0.198v1.201C16.047,15.922,16.003,15.966,15.953,15.966z"></path>
    <path fill="#1E0C0C" d="M3.02,24.021c-0.546,0-0.989,0.443-0.989,0.989C2.03,25.557,2.474,26,3.02,26s0.988-0.443,0.988-0.989
		C4.008,24.464,3.565,24.021,3.02,24.021z"></path>
    <path fill="#1E0C0C" d="M15.028,24.021c-0.546,0-0.989,0.443-0.989,0.989c0,0.546,0.443,0.989,0.989,0.989s0.989-0.443,0.989-0.989
		C16.018,24.464,15.574,24.021,15.028,24.021z"></path>
    <path fill="#1E0C0C" d="M9.051,24.021c-0.547,0-0.989,0.443-0.989,0.989C8.062,25.557,8.504,26,9.051,26
		c0.546,0,0.988-0.443,0.988-0.989C10.039,24.464,9.597,24.021,9.051,24.021z"></path>
</g>
</svg>