<svg version="1.1" id="Слой_1" xmlns="http://www.w3.org/2000/svg" xmlns:xlink="http://www.w3.org/1999/xlink" x="0px" y="0px" width="18.031px" height="22.031px" viewBox="0 0 18.031 22.031" enable-background="new 0 0 18.031 22.031" xml:space="preserve">
<g>
	<path fill="#1E0C0C" d="M13.303,11.172c0.499,0.816,0.822,1.841,0.912,2.838h-2.292c-0.026-0.589-0.105-1.244-0.227-1.772
		c-0.401,0.258-0.748,0.475-1.012,0.638c0.057,0.333,0.092,0.775,0.108,1.134H8.019V6.993L7.971,6.996c0-0.003,0-0.005,0-0.009
		c-0.177-0.012-0.074-0.02-0.254-0.02C3.472,6.967,0,10.298,0,14.483c0,4.186,3.472,7.548,7.717,7.548
		c4.244,0,7.685-3.362,7.685-7.548c0-1.46-0.42-2.823-1.146-3.98C13.935,10.734,13.615,10.958,13.303,11.172z M11.358,17.592
		c0.312-0.883,0.484-1.761,0.546-2.564h2.311c-0.109,1.203-0.555,2.341-1.244,3.263C12.495,18.041,11.955,17.799,11.358,17.592z
		 M10.762,15.028c-0.068,0.699-0.233,1.469-0.514,2.241c-0.607-0.144-1.539-0.245-2.229-0.281v-1.959H10.762z M7.017,10.865
		c-0.528-0.037-0.954-0.123-1.523-0.26c0.544-1.151,1.098-1.994,1.523-2.458V10.865z M4.408,10.287
		c-0.377-0.134-0.764-0.299-1.155-0.485c0.629-0.584,1.375-1.044,2.199-1.346C5.101,8.959,4.731,9.573,4.408,10.287z M3.995,11.348
		C3.74,12.125,3.56,13.078,3.518,14.01H1.219c0.107-1.202,0.552-2.4,1.238-3.322C2.98,10.951,3.493,11.171,3.995,11.348z M7.017,21
		c-0.63-0.807-0.995-1.903-1.366-2.659c0.515-0.117,0.887-0.188,1.366-0.221V21z M7.017,16.99c-0.623,0.036-1.148,0.128-1.821,0.289
		c-0.281-0.776-0.44-1.548-0.506-2.251h2.327V16.99z M3.537,15.028c0.063,0.807,0.239,1.689,0.552,2.577
		c-0.53,0.182-1.07,0.408-1.623,0.686c-0.689-0.922-1.137-2.059-1.247-3.263H3.537z M4.521,18.664
		c0.293,0.622,0.66,1.572,1.106,2.224c-0.888-0.297-1.689-1.09-2.36-1.71C3.692,18.975,4.111,18.805,4.521,18.664z M8.019,18.107
		c0.53,0.027,1.313,0.097,1.787,0.199c-0.373,0.764-1.149,1.869-1.787,2.686V18.107z M4.658,14.01
		c0.036-0.815,0.188-1.662,0.409-2.338c0.719,0.181,1.287,0.283,1.95,0.321v2.017H4.658z M10.938,18.618
		c0.46,0.156,0.882,0.337,1.263,0.526c-0.675,0.63-1.483,1.436-2.382,1.738C10.275,20.217,10.642,19.254,10.938,18.618z"></path>
    <path fill="#1E0C0C" d="M15.704,0.475C15.094,0.164,14.412,0,13.729,0c-1.617,0-3.083,0.879-3.826,2.295
		c-0.99,1.887-0.908,8.529-0.863,9.28c0.012,0.201,0.131,0.381,0.313,0.474c0.083,0.042,0.456-0.03,0.547-0.03
		c0.107,0,0.213-0.028,0.307-0.086c0.647-0.398,6.354-3.851,7.344-5.738C18.641,4.115,17.812,1.549,15.704,0.475z M16.521,5.67
		c-0.617,1.175-4.446,3.811-6.464,5.109c-0.093-2.375,0.259-6.783,0.876-7.959c0.543-1.036,1.615-1.678,2.797-1.678
		c0.505,0,0.99,0.116,1.442,0.347C16.712,2.275,17.318,4.151,16.521,5.67z"></path>
    <path fill="#1E0C0C" d="M14.663,2.295C14.31,2.11,13.915,2.013,13.52,2.013c-0.938,0-1.786,0.522-2.216,1.363
		c-0.306,0.598-0.363,1.281-0.162,1.923c0.202,0.642,0.639,1.166,1.229,1.475c0.353,0.184,0.749,0.282,1.144,0.282
		c0.936,0,1.785-0.522,2.216-1.364C16.363,4.457,15.883,2.933,14.663,2.295z M14.549,5.073c-0.201,0.393-0.597,0.637-1.034,0.637
		c-0.186,0-0.365-0.044-0.532-0.132c-0.275-0.144-0.479-0.388-0.573-0.688c-0.095-0.299-0.068-0.617,0.076-0.896
		c0.2-0.392,0.596-0.636,1.034-0.636c0.186,0,0.364,0.044,0.531,0.131C14.62,3.788,14.843,4.498,14.549,5.073z"></path>
</g>
</svg>