<svg version="1.1" id="Слой_1" xmlns="http://www.w3.org/2000/svg" xmlns:xlink="http://www.w3.org/1999/xlink" x="0px" y="0px" width="16.771px" height="16.771px" viewBox="0 0 16.771 16.771" enable-background="new 0 0 16.771 16.771" xml:space="preserve">
<g>
	<path fill="#010101" d="M8.386,0C3.754,0,0,3.754,0,8.386s3.754,8.386,8.386,8.386c4.631,0,8.386-3.754,8.386-8.386
		S13.018,0,8.386,0z M8.386,15.653c-4.008,0-7.268-3.26-7.268-7.268s3.26-7.268,7.268-7.268c4.007,0,7.268,3.26,7.268,7.268
		S12.393,15.653,8.386,15.653z"></path>
    <path fill="#010101" d="M6.458,6.871c0.078,1.445,0.827,2.115,1.565,2.425l-1.875,3.546l1.223,0.035L9.153,9.55
		c0.229,0.013,0.38,0.002,0.38,0.002v3.296h1.09v-8.95h-1.09C9.533,3.898,6.288,3.653,6.458,6.871z M9.485,8.729
		c0,0-0.696,0.348-1.269-0.264C7.202,7.38,7.446,5.885,8.201,5.213c0.572-0.51,1.284-0.319,1.284-0.319V8.729z"></path>
</g>
</svg>